<svg width="604" height="687" viewBox="0 0 604 687" fill="none" xmlns="http://www.w3.org/2000/svg">
<path d="M293.667 1.53328C292.2 2.19995 289.8 4.06662 288.333 5.66662C285.8 8.46662 285.667 11 285 57.5333L284.333 106.333L250.333 107.133V91.2666C250.333 67.2666 246.067 54.6 233.933 42.6C221.8 30.8666 204.467 26.4666 175.667 27.9333C159.267 28.7333 158.067 29 154.067 33C149.4 37.5333 148.467 43.4 151.267 49.2666C154.6 56.4666 159.133 57.6666 181.533 57.6666C202.2 57.6666 206.2 58.4666 212.2 64.0666C218.333 69.9333 219.667 74.6 219.667 91.5333V106.733L181.4 107.267C146.2 107.8 142.333 108.067 135.267 110.733C121.933 115.667 112.467 122.467 104.2 133C94.2 145.8 90.3333 158.867 90.3333 180.2C90.3333 194.333 93.4 260.467 95 281.933L95.8 292.333H82.0667C59.6667 292.467 44.4667 297.667 31.1333 309.8C17.9333 321.933 10.8666 336.6 9.39998 355.267C7.79998 375.933 14.2 393.4 28.8666 408.333C44.3333 424.067 55.6667 428.2 86.0667 429.267L107.667 430.067V437.533C107.667 441.667 109.133 479.133 110.867 521C114.333 604.733 114.2 603.667 123.8 618.2C133.133 632.2 151.8 642.867 167.133 643H171.4L171.8 659.533C172.333 674.867 172.6 676.333 175.533 679.533C179 683.267 186.467 685.933 190.067 684.733C200.333 681.533 202.333 677.133 202.333 658.467V644.333H403.667V659.4C403.667 677.267 405.667 682.467 413.667 685.533C417.933 687.267 419.4 687.267 424.2 685.533C432.467 682.733 434.333 677.933 434.333 659V643.533L443.133 642.067C465.933 638.2 485.267 619.4 488.867 597.533C489.533 593.533 490.467 581.667 490.867 571C491.267 560.333 492.6 526.733 493.667 496.333C494.867 465.933 496.067 438.467 496.467 435.267L497.133 429.667H512.067C534.067 429.533 545.4 427.8 556.467 422.467C573.933 414.2 589.133 395.8 593 378.067C595.267 368.467 594.867 350.867 592.333 342.067C585.4 318.067 565 298.733 541.267 293.8C537.4 293 527.533 292.333 519.533 292.333H504.867L505.533 285.267C505.933 281.533 506.867 263 507.667 244.333C508.467 225.667 509.4 207.8 509.8 204.6L510.467 199H550.6L555.133 194.467C560.333 189.267 561.133 182.6 557.4 176.2C554.2 170.867 550.733 169.933 528.867 168.867L509.533 168.067L507.933 160.333C504.333 142.867 489.933 123.4 474.6 115.267C461.133 108.067 453.667 107 414.067 107H378.333V92.3333C378.333 73 381.133 65.9333 391 60.6C394.067 58.8666 400.2 58.2 418.067 57.6666L441.267 57L445.133 52.6C449.533 47.6666 450.067 42.3333 447 36.3333C443.4 29.2666 439.533 28.3333 414.467 28.3333C395.133 28.3333 390.467 28.7333 383.4 31.1333C372.467 34.7333 363.533 41.2666 357.533 50.2C350.6 60.7333 348.733 67.9333 348.067 88.6L347.267 107H315.667V61.9333C315.667 36.3333 315.133 15 314.333 12.2C313.533 9.66662 311.533 6.06662 309.8 4.46662C306.333 1.13328 297.933 -0.333382 293.667 1.53328ZM457 141.4C465.933 146.067 472.6 153.267 475.8 161.667C479 170.2 478.867 178.733 474.333 270.333C472.867 298.2 471.667 321.4 471.667 321.933C471.667 322.6 484.6 323 500.333 323C515.933 323 531.933 323.667 535.667 324.467C551.8 327.933 563.667 342.867 563.667 359.533C563.667 375.533 556.067 388.467 543.133 394.467C536.6 397.533 535.267 397.667 501.4 397.667H466.467L465.8 404.6C465.4 408.467 463.533 452.467 461.667 502.333C458.467 587.933 458.2 593.267 455.533 598.733C453.8 602.2 450.467 605.933 447.267 608.067L441.8 611.667L305.8 612.067C202.067 612.333 168.2 612.067 163.8 610.867C156.333 608.733 148.333 601 146.467 594.067C145.8 591.267 143.267 548.467 141 499C138.867 449.533 136.6 406.467 136.2 403.267L135.533 397.667H101.933C69.5333 397.667 68.0667 397.533 61.6667 394.467C33.4 381.4 32.4667 341.8 60.2 327.267C67 323.667 67.2667 323.667 98.0667 323.267L129 322.733V318.6C129 316.2 127.8 294.867 126.333 271C120.867 178.467 120.6 171.667 123 163.533C126.467 151.667 137.267 141.4 149.267 139.133C152.467 138.467 221.667 138.067 303 138.067L451 138.333L457 141.4Z" fill="black"/>
<path d="M296.2 167.267C281.667 171.267 279 190.6 291.933 198.333C301 203.667 313.667 198.867 317 189C319.133 182.6 317.533 177 312.333 171.8C307.533 167 302.467 165.533 296.2 167.267Z" fill="black"/>
<path d="M158.867 174.2C150.067 178.067 149.8 189.667 158.467 194.067C162.6 196.2 166.867 196.333 203.4 196.067L243.933 195.667L247.133 191.933C253.133 185 250.333 176.2 241.267 173.667C233.533 171.533 164.067 171.933 158.867 174.2Z" fill="black"/>
<path d="M353.4 174.333C345.8 177.533 344.067 185.533 349.533 191.933L352.733 195.667H442.6L445.8 191.933C451.8 185 449 176.2 439.933 173.667C432.067 171.533 358.733 171.933 353.4 174.333Z" fill="black"/>
<path d="M150.333 224.467C144.467 226.867 142.333 229.8 142.333 235.267C142.333 239 143.267 241.4 145.667 243.667L148.867 247H216.2C253.267 247 283.8 247.4 284.067 247.933C284.333 248.6 274.2 298.2 261.533 358.2C248.733 418.2 238.467 467.667 238.733 467.933C239 468.2 267.133 468.2 301.267 468.067L363.267 467.667L340.2 360.333C327.533 301.267 317.133 251.933 317 250.733C317 248.6 322.067 248.467 385 248.067L453 247.667L456.6 244.067C463.533 237 460.467 227.133 450.467 224.333C447.533 223.533 419.4 223 379.4 223H313V440.467L288.333 439.667L287.933 331.267L287.667 223L220.6 223.133C179.8 223.133 152.333 223.667 150.333 224.467Z" fill="black"/>
<path d="M183 257.133C141.933 270.2 133.933 325.267 169.667 349C206.333 373.267 254.867 343.267 248.867 299.8C246.6 282.733 234.6 266.6 219 259.533C209 254.867 193.267 253.933 183 257.133ZM210.2 281.533C227.8 290.6 231.267 312.2 217.4 326.2C209.533 334.2 195.533 336.333 185.267 331.133C159.667 318.067 169.133 279 197.933 279C202.467 279 207 279.933 210.2 281.533Z" fill="black"/>
<path d="M187 295.667C183.133 299.667 182.333 301.4 182.333 306.333C182.333 313.8 187 319.667 194.467 321.667C207.8 325.267 218.867 309.533 211.4 297.667C209 293.8 203 291 197.133 291C192.733 291 190.867 291.8 187 295.667Z" fill="black"/>
<path d="M388.333 256.733C379 259.8 371.667 264.333 365.4 270.467C335.133 300.867 355.133 354.6 397.667 357.4C420.067 358.867 438.6 348.067 448.2 328.333C451.933 320.467 452.333 318.467 452.333 306.333C452.333 294.467 451.933 292.067 448.6 284.867C443.8 274.467 433.533 264.2 423 259.533C413.533 255.133 397.133 253.933 388.333 256.733ZM413.4 281.133C421 285 426.333 291.133 428.467 298.733C435.533 322.867 410.867 342.333 388.2 330.6C369.533 320.867 369.933 292.067 388.867 282.067C395.933 278.333 407 277.933 413.4 281.133Z" fill="black"/>
<path d="M391 295.667C387.133 299.667 386.333 301.4 386.333 306.2C386.333 320.467 402.867 327.533 412.867 317.533C423.267 307.133 416.2 291 401.133 291C396.733 291 394.867 291.8 391 295.667Z" fill="black"/>
<path d="M84.3333 346.733C70.8667 351.267 68.8667 368.067 81.1333 374.467C92.4667 380.2 105.4 370.867 103.133 358.6C101.667 350.6 91.8 344.333 84.3333 346.733Z" fill="black"/>
<path d="M505.4 348.333C503.133 349.667 500.467 352.067 499.8 353.533C496.467 359.667 499.267 369.8 505.267 373.533C509.133 375.933 517.8 375.667 521.8 373C528.2 368.867 530.333 358.2 525.933 352.333C520.733 345.533 512.6 343.933 505.4 348.333Z" fill="black"/>
<path d="M381.533 378.067C381.267 379 381.133 389.933 381.267 402.333L381.667 425L408.733 425.4L435.667 425.667V376.333H409C388.467 376.333 382.067 376.733 381.533 378.067Z" fill="black"/>
<path d="M169.667 381C165.667 385 165.4 389.533 169.133 394.2L171.8 397.667H193.8C213.933 397.667 215.933 397.4 218.333 395C222.333 391 221.933 383.933 217.533 380.467C214.333 377.933 212.2 377.667 193.4 377.667C173.4 377.667 172.733 377.8 169.667 381Z" fill="black"/>
<path d="M181 429.8C166.333 435.667 162.733 455.667 174.6 466.6C181.267 472.867 190.2 473.933 199.133 469.533C215.133 461.8 215 438.867 198.867 431C193.133 428.067 186.333 427.667 181 429.8Z" fill="black"/>
<path d="M389.133 448.467C378.867 452.733 380.867 465.667 392.2 467.667C394.6 468.2 404.2 468.333 413.4 468.067C428.6 467.667 430.6 467.4 433.133 464.733C437 460.867 437 454.467 433.133 450.6C430.467 447.933 428.867 447.667 411.267 447.4C400.867 447.267 390.867 447.667 389.133 448.467Z" fill="black"/>
<path d="M195.667 576.333H409V497.667H195.667V576.333ZM378.333 545.667H226.333V528.333H378.333V545.667Z" fill="black"/>
<path d="M8.46665 242.333C1.13331 246.2 -1.53335 253.4 1.53331 261C4.86665 269 7.93331 269.667 40.8666 269.667H70.0667L74.2 266.2C82.2 259.533 80.7333 247 71.2667 242.6C64.7333 239.4 14.3333 239.267 8.46665 242.333Z" fill="black"/>
<path d="M540.2 242.2C529.133 247 528.6 262.733 539.267 268.2C542.867 270.067 588.733 270.2 593.533 268.333C600.067 265.933 603.267 253.533 598.867 247.267C594.6 241.133 590.733 240.333 566.733 240.333C550.867 240.467 543.133 241 540.2 242.2Z" fill="black"/>
<path d="M11.1333 451C1.93332 453.8 -2.33335 462.867 1.66665 471.4C5.26665 479.133 8.33332 479.667 44.3333 479.667C79.6667 479.667 81.5333 479.267 85 471C88.4667 462.6 83.8 453.667 74.7333 451.133C68.7333 449.4 16.7333 449.4 11.1333 451Z" fill="black"/>
<path d="M530.6 451C524.733 452.333 521.267 455.667 519.533 461.8C518.2 466.067 518.333 467.4 520.467 471.267C525.533 479.8 528.6 480.467 563 480.067C596.467 479.667 597.533 479.4 601.8 471.533C606.333 463.133 601.133 453.267 590.733 450.867C584.6 449.533 536.733 449.533 530.6 451Z" fill="black"/>
</svg>
